<?xml version="1.0"?>

<svg xmlns="http://www.w3.org/2000/svg" xmlns:xlink="http://www.w3.org/1999/xlink" xmlns:svgjs="http://svgjs.com/svgjs" version="1.1" width="512" height="512" x="0" y="0" viewBox="0 0 512 512" style="enable-background:new 0 0 512 512" xml:space="preserve" class=""><g transform="matrix(1,0,0,1,0,1.7053025658242404e-13)"><linearGradient xmlns="http://www.w3.org/2000/svg" id="SVGID_1_" gradientUnits="userSpaceOnUse" x1="256" x2="256" y1="512" y2="0"><stop stop-opacity="1" stop-color="#a93aff" offset="0"/><stop stop-opacity="1" stop-color="#f7f9ff" offset="0"/></linearGradient><g xmlns="http://www.w3.org/2000/svg"><g><path d="m451 271h-75v-62.076c50.817-7.301 90-51.119 90-103.924 0-57.897-47.103-105-105-105h-240c-57.897 0-105 47.103-105 105s47.103 105 105 105h165v61h-15c-24.813 0-45 20.187-45 45v35.147c0 58.509 23.471 115.536 64.394 156.459 2.812 2.813 6.627 4.394 10.606 4.394h120c3.979 0 7.794-1.581 10.606-4.394 40.923-40.923 64.394-97.95 64.394-156.459v-35.147c0-24.813-20.187-45-45-45zm-330-91c-41.355 0-75-33.645-75-75s33.645-75 75-75h240c41.355 0 75 33.645 75 75 0 36.219-25.808 66.522-60 73.491v-13.491c0-24.813-20.187-45-45-45s-45 20.187-45 45v15zm345 171.147c0 48.548-18.646 95.883-51.357 130.853h-107.286c-32.71-34.97-51.357-82.304-51.357-130.853v-35.147c0-8.271 6.729-15 15-15h15v45c0 8.284 6.716 15 15 15s15-6.716 15-15c0-10.741 0-171.042 0-181 0-8.271 6.729-15 15-15s15 6.729 15 15v121c0 8.284 6.716 15 15 15h90c8.271 0 15 6.729 15 15z" fill="url(#SVGID_1_)" data-original="url(#SVGID_1_)" style=""/></g></g></g></svg>
